<svg id="Illustration" xmlns="http://www.w3.org/2000/svg" xmlns:xlink="http://www.w3.org/1999/xlink" viewBox="0 0 2805.3 2800"><defs><style>.cls-1,.cls-3{opacity:0.3;}.cls-1{fill:url(#linear-gradient);}.cls-2{opacity:0.69;}.cls-4{fill:url(#linear-gradient-2);}.cls-5{fill:url(#linear-gradient-3);}.cls-6{fill:url(#linear-gradient-4);}.cls-7{fill:url(#linear-gradient-5);}.cls-8{fill:url(#linear-gradient-6);}.cls-9{fill:url(#linear-gradient-7);}.cls-10,.cls-19,.cls-21,.cls-22{fill:#fff;}.cls-10{opacity:0.56;}.cls-11{fill:url(#linear-gradient-8);}.cls-12{fill:url(#linear-gradient-9);}.cls-13{fill:url(#linear-gradient-10);}.cls-14{fill:url(#linear-gradient-11);}.cls-15{fill:url(#linear-gradient-12);}.cls-16{fill:url(#linear-gradient-13);}.cls-17{fill:url(#linear-gradient-14);}.cls-18{fill:url(#linear-gradient-15);}.cls-20{opacity:0.82;}.cls-21{opacity:0.6;}.cls-22{opacity:0.53;}.cls-23{fill:url(#linear-gradient-16);}.cls-24{fill:url(#linear-gradient-17);}.cls-25{fill:url(#linear-gradient-18);}.cls-26{fill:url(#linear-gradient-19);}.cls-27{fill:url(#linear-gradient-20);}.cls-28{fill:url(#linear-gradient-21);}.cls-29{fill:url(#linear-gradient-22);}.cls-30{fill:url(#linear-gradient-23);}.cls-31{fill:url(#linear-gradient-24);}.cls-32{fill:url(#linear-gradient-25);}.cls-33{fill:url(#linear-gradient-26);}.cls-34{fill:url(#linear-gradient-27);}.cls-35{fill:url(#linear-gradient-28);}.cls-36{fill:url(#linear-gradient-29);}.cls-37{fill:url(#linear-gradient-30);}.cls-38{fill:url(#linear-gradient-31);}.cls-39{fill:url(#linear-gradient-32);}.cls-40{fill:url(#linear-gradient-33);}.cls-41{fill:url(#linear-gradient-34);}.cls-42{fill:url(#linear-gradient-35);}.cls-43{fill:url(#linear-gradient-36);}.cls-44{fill:url(#linear-gradient-37);}.cls-45{fill:url(#linear-gradient-38);}.cls-46{fill:url(#linear-gradient-39);}.cls-47{fill:url(#linear-gradient-40);}.cls-48{fill:url(#linear-gradient-41);}.cls-49{fill:url(#linear-gradient-42);}.cls-50{fill:url(#linear-gradient-43);}.cls-51{fill:url(#linear-gradient-44);}.cls-52{fill:url(#linear-gradient-45);}.cls-53{fill:url(#linear-gradient-46);}.cls-54{fill:url(#linear-gradient-47);}.cls-55{fill:url(#linear-gradient-48);}.cls-56{fill:url(#linear-gradient-49);}.cls-57{fill:url(#linear-gradient-50);}.cls-58{fill:url(#linear-gradient-51);}.cls-59{fill:url(#linear-gradient-52);}.cls-60{fill:url(#linear-gradient-53);}.cls-61{fill:url(#linear-gradient-54);}.cls-62{fill:url(#linear-gradient-55);}.cls-63{fill:url(#linear-gradient-56);}.cls-64{fill:url(#linear-gradient-57);}.cls-65{fill:url(#linear-gradient-58);}.cls-66{fill:url(#linear-gradient-59);}.cls-67{fill:url(#linear-gradient-60);}.cls-68{fill:url(#linear-gradient-61);}</style><linearGradient id="linear-gradient" x1="3610.59" y1="4081.41" x2="1119.11" y2="987.16" gradientUnits="userSpaceOnUse"><stop offset="0" stop-color="#b37cff"/><stop offset="1" stop-color="#f895e7"/></linearGradient><linearGradient id="linear-gradient-2" x1="693.85" y1="1907.45" x2="1263.12" y2="1907.45" gradientTransform="matrix(0.07, 1, 1, -0.07, -1298.86, 267.26)" xlink:href="#linear-gradient"/><linearGradient id="linear-gradient-3" x1="1290.8" y1="1757.48" x2="1324.05" y2="1757.48" gradientTransform="matrix(0.07, 1, 1, -0.07, -1298.86, 267.26)" xlink:href="#linear-gradient"/><linearGradient id="linear-gradient-4" x1="1463.39" y1="2011.53" x2="1486.2" y2="2011.53" gradientTransform="matrix(0.07, 1, 1, -0.07, -1298.86, 267.26)" xlink:href="#linear-gradient"/><linearGradient id="linear-gradient-5" x1="904.72" y1="2271.05" x2="1491.08" y2="2271.05" gradientTransform="matrix(0.07, 1, 1, -0.07, -1298.86, 267.26)" xlink:href="#linear-gradient"/><linearGradient id="linear-gradient-6" x1="846.27" y1="2394.68" x2="879.09" y2="2394.68" gradientTransform="matrix(0.07, 1, 1, -0.07, -1298.86, 267.26)" xlink:href="#linear-gradient"/><linearGradient id="linear-gradient-7" x1="-621.67" y1="825.13" x2="1560.1" y2="3760.32" gradientTransform="translate(-1252.62 1553.1) rotate(-90.22)" xlink:href="#linear-gradient"/><linearGradient id="linear-gradient-8" x1="355.23" y1="2381.63" x2="371.46" y2="2381.63" gradientTransform="matrix(0.07, 1, 1, -0.07, -1298.86, 267.26)" xlink:href="#linear-gradient"/><linearGradient id="linear-gradient-9" x1="348.66" y1="2199.32" x2="666.67" y2="2199.32" gradientTransform="matrix(0.07, 1, 1, -0.07, -1298.86, 267.26)" xlink:href="#linear-gradient"/><linearGradient id="linear-gradient-10" x1="490.6" y1="2504.19" x2="853.58" y2="2504.19" gradientTransform="matrix(0.07, 1, 1, -0.07, -1298.86, 267.26)" xlink:href="#linear-gradient"/><linearGradient id="linear-gradient-11" x1="450.7" y1="2526.91" x2="475.52" y2="2526.91" gradientTransform="matrix(0.07, 1, 1, -0.07, -1298.86, 267.26)" xlink:href="#linear-gradient"/><linearGradient id="linear-gradient-12" x1="-403.11" y1="662.67" x2="1778.66" y2="3597.86" gradientTransform="translate(-1252.62 1553.1) rotate(-90.22)" xlink:href="#linear-gradient"/><linearGradient id="linear-gradient-13" x1="1063.79" y1="1881.46" x2="2777.96" y2="1881.46" gradientUnits="userSpaceOnUse"><stop offset="0" stop-color="#2b3582"/><stop offset="1" stop-color="#150e42"/></linearGradient><linearGradient id="linear-gradient-14" x1="2353.23" y1="1231.37" x2="-1102.3" y2="5651.85" gradientUnits="userSpaceOnUse"><stop offset="0" stop-color="#fdf53f"/><stop offset="0.66" stop-color="#e57a58"/><stop offset="1" stop-color="#d93c65"/></linearGradient><linearGradient id="linear-gradient-15" x1="3397.49" y1="294.42" x2="2559.48" y2="1260.83" gradientUnits="userSpaceOnUse"><stop offset="0" stop-color="#a737d5"/><stop offset="1" stop-color="#ef497a"/></linearGradient><linearGradient id="linear-gradient-16" x1="1275.23" y1="490.05" x2="1917" y2="1713.68" gradientTransform="matrix(1, 0.04, -0.04, 1, 115.99, -36.92)" xlink:href="#linear-gradient-13"/><linearGradient id="linear-gradient-17" x1="1524.24" y1="813.22" x2="2427.7" y2="2114.63" gradientTransform="matrix(1, 0.04, -0.04, 1, 115.99, -36.92)" gradientUnits="userSpaceOnUse"><stop offset="0" stop-color="#53d8ff"/><stop offset="1" stop-color="#3840f7"/></linearGradient><linearGradient id="linear-gradient-18" x1="1369.37" y1="1356.25" x2="2484.19" y2="2754.59" xlink:href="#linear-gradient-17"/><linearGradient id="linear-gradient-19" x1="1447.74" y1="1349.27" x2="2295.89" y2="1349.27" gradientTransform="matrix(1, 0.04, -0.04, 1, 115.99, -36.92)" xlink:href="#linear-gradient-13"/><linearGradient id="linear-gradient-20" x1="1572.5" y1="956.32" x2="1789.04" y2="2169.32" gradientTransform="matrix(0.88, 0.48, -0.48, 0.88, 905.71, -597.16)" xlink:href="#linear-gradient-17"/><linearGradient id="linear-gradient-21" x1="2016.12" y1="877.14" x2="2232.66" y2="2090.14" xlink:href="#linear-gradient-17"/><linearGradient id="linear-gradient-22" x1="1533.66" y1="1204.36" x2="1696.07" y2="1422.73" xlink:href="#linear-gradient-17"/><linearGradient id="linear-gradient-23" x1="1991.17" y1="1204.37" x2="2153.58" y2="1422.74" xlink:href="#linear-gradient-17"/><linearGradient id="linear-gradient-24" x1="1386.33" y1="791.94" x2="1350.07" y2="1118.2" xlink:href="#linear-gradient-17"/><linearGradient id="linear-gradient-25" x1="1373.25" y1="1079.84" x2="1478.87" y2="1079.84" gradientTransform="matrix(1, 0.04, -0.04, 1, 115.99, -36.92)" xlink:href="#linear-gradient-13"/><linearGradient id="linear-gradient-26" x1="1421.16" y1="801.93" x2="1386.61" y2="1112.94" xlink:href="#linear-gradient-17"/><linearGradient id="linear-gradient-27" x1="2402.99" y1="904.92" x2="2366.74" y2="1231.18" xlink:href="#linear-gradient-17"/><linearGradient id="linear-gradient-28" x1="2296.86" y1="1079.86" x2="2402.47" y2="1079.86" gradientTransform="matrix(1, 0.04, -0.04, 1, 115.99, -36.92)" xlink:href="#linear-gradient-13"/><linearGradient id="linear-gradient-29" x1="2382.95" y1="903.34" x2="2348.04" y2="1217.52" xlink:href="#linear-gradient-17"/><linearGradient id="linear-gradient-30" x1="1680.48" y1="970.18" x2="3190.65" y2="2335.84" xlink:href="#linear-gradient-17"/><linearGradient id="linear-gradient-31" x1="1219.37" y1="856.22" x2="2291.84" y2="1668.09" xlink:href="#linear-gradient-17"/><linearGradient id="linear-gradient-32" x1="1222.71" y1="1339.93" x2="2359.62" y2="2264.76" xlink:href="#linear-gradient-17"/><linearGradient id="linear-gradient-33" x1="1308.13" y1="1402.48" x2="2288.07" y2="2364.53" xlink:href="#linear-gradient-17"/><linearGradient id="linear-gradient-34" x1="1384.66" y1="1324.51" x2="2364.62" y2="2286.57" xlink:href="#linear-gradient-17"/><linearGradient id="linear-gradient-35" x1="1461.23" y1="1246.53" x2="2441.18" y2="2208.58" xlink:href="#linear-gradient-17"/><linearGradient id="linear-gradient-36" x1="-706" y1="3241.61" x2="-528.76" y2="3241.61" gradientTransform="matrix(-1, 0, 0, 1, 2198.33, 0)" xlink:href="#linear-gradient-17"/><linearGradient id="linear-gradient-37" x1="-706.01" y1="3206.87" x2="-533.77" y2="3206.87" gradientTransform="matrix(-1, 0, 0, 1, 2198.33, 0)" xlink:href="#linear-gradient-13"/><linearGradient id="linear-gradient-38" x1="-689.63" y1="3158.38" x2="-639.71" y2="3158.38" gradientTransform="matrix(-1, 0, 0, 1, 2198.33, 0)" gradientUnits="userSpaceOnUse"><stop offset="0" stop-color="#f9b776"/><stop offset="1" stop-color="#f47960"/></linearGradient><linearGradient id="linear-gradient-39" x1="-1059.33" y1="3237.79" x2="-991.41" y2="3237.79" gradientTransform="matrix(-1, 0, 0, 1, 2198.33, 0)" xlink:href="#linear-gradient-17"/><linearGradient id="linear-gradient-40" x1="-1058.83" y1="3185.49" x2="-959.14" y2="3185.49" gradientTransform="matrix(-1, 0, 0, 1, 2198.33, 0)" xlink:href="#linear-gradient-13"/><linearGradient id="linear-gradient-41" x1="-1007.01" y1="3116.76" x2="-947.35" y2="3116.76" xlink:href="#linear-gradient-38"/><linearGradient id="linear-gradient-42" x1="3696.9" y1="1329.36" x2="2737.24" y2="3248.67" gradientTransform="matrix(1, 0, 0, 1, 0, 0)" xlink:href="#linear-gradient-17"/><linearGradient id="linear-gradient-43" x1="-256.7" y1="1871.29" x2="-1624.46" y2="3060.89" gradientTransform="matrix(-1, 0, 0, 1, 2198.33, 0)" gradientUnits="userSpaceOnUse"><stop offset="0" stop-color="#cb236d"/><stop offset="1" stop-color="#4c246d"/></linearGradient><linearGradient id="linear-gradient-44" x1="-805.96" y1="2895.81" x2="-777.37" y2="2838.63" gradientTransform="matrix(-1, 0, 0, 1, 2198.33, 0)" xlink:href="#linear-gradient-17"/><linearGradient id="linear-gradient-45" x1="-733.67" y1="2247.09" x2="-946.06" y2="2435.17" xlink:href="#linear-gradient-38"/><linearGradient id="linear-gradient-46" x1="-370.73" y1="1745.22" x2="-1732.32" y2="2929.46" xlink:href="#linear-gradient-43"/><linearGradient id="linear-gradient-47" x1="-917.13" y1="1228.92" x2="-2339.69" y2="2466.19" gradientTransform="matrix(-0.88, -0.48, -0.48, 0.88, 2202.68, 335.3)" xlink:href="#linear-gradient-43"/><linearGradient id="linear-gradient-48" x1="10.99" y1="1932.28" x2="-257.5" y2="2236.57" xlink:href="#linear-gradient-38"/><linearGradient id="linear-gradient-49" x1="-498.11" y1="1817.89" x2="-499.93" y2="2130.25" xlink:href="#linear-gradient-38"/><linearGradient id="linear-gradient-50" x1="-872.4" y1="2500.57" x2="-1026.16" y2="2703.97" gradientTransform="matrix(-0.78, -0.62, -0.62, 0.78, 3534.02, -760.91)" xlink:href="#linear-gradient-38"/><linearGradient id="linear-gradient-51" x1="2816.52" y1="1668.86" x2="2505.64" y2="1878.36" gradientTransform="matrix(1, 0, 0, 1, 0, 0)" xlink:href="#linear-gradient-43"/><linearGradient id="linear-gradient-52" x1="-1097.59" y1="2661.65" x2="-974.27" y2="2535.13" gradientTransform="matrix(-0.78, -0.62, -0.62, 0.78, 3534.02, -760.91)" xlink:href="#linear-gradient-38"/><linearGradient id="linear-gradient-53" x1="-649.8" y1="2341.81" x2="-862.19" y2="2529.89" xlink:href="#linear-gradient-38"/><linearGradient id="linear-gradient-54" x1="36.95" y1="1967.2" x2="-225.07" y2="2264.16" xlink:href="#linear-gradient-38"/><linearGradient id="linear-gradient-55" x1="-77.93" y1="2062.62" x2="-37.41" y2="2080.36" xlink:href="#linear-gradient-38"/><linearGradient id="linear-gradient-56" x1="1194.11" y1="1950.74" x2="724.42" y2="1018.12" gradientTransform="translate(2339.02 367.49) rotate(83.53)" xlink:href="#linear-gradient"/><linearGradient id="linear-gradient-57" x1="838.92" y1="1808.33" x2="1129.52" y2="1075.08" gradientTransform="translate(2338.92 367.37) rotate(83.53)" xlink:href="#linear-gradient-15"/><linearGradient id="linear-gradient-58" x1="1397.19" y1="3345.7" x2="927.5" y2="2413.07" gradientTransform="translate(3905.34 1403.58) rotate(83.53)" xlink:href="#linear-gradient"/><linearGradient id="linear-gradient-59" x1="1042" y1="3203.29" x2="1332.6" y2="2470.03" gradientTransform="translate(3905.18 1403.28) rotate(83.53)" xlink:href="#linear-gradient-15"/><linearGradient id="linear-gradient-60" x1="1031.04" y1="2682.78" x2="561.35" y2="1750.16" gradientTransform="translate(2921.69 1179.08) rotate(83.53)" xlink:href="#linear-gradient"/><linearGradient id="linear-gradient-61" x1="675.85" y1="2540.38" x2="966.45" y2="1807.12" gradientTransform="translate(2921.62 1178.93) rotate(83.53)" xlink:href="#linear-gradient-15"/></defs><title>19199021 [Converted]</title><path class="cls-1" d="M2925.17,2861.15c-57.23,60.25-111.38,99.1-154.16,129.8-502.9,360.83-1098,255.65-1224.42,230-186.75-37.93-547.73-111.25-808.72-418.16C343,2338.41,404.51,1606.87,710.78,1124c56-88.33,351.94-578.59,953.41-657.21,364-47.58,788.31,48.38,1095.58,305.82C3404.76,1312.94,3358.84,2404.59,2925.17,2861.15Z" transform="translate(-452.35 -455)"/><g class="cls-2"><g class="cls-3"><path class="cls-4" d="M875.9,829.27a10,10,0,0,1-10.35,9.6c-10.7-.39-21.58-.34-32.33.18a10,10,0,0,1-10.44-9.29v-.2a10,10,0,0,1,9.49-10.44c11.32-.55,22.77-.61,34-.19a10,10,0,0,1,9.58,9.29A9.11,9.11,0,0,1,875.9,829.27Zm-94.84,15.9c-10.58,2-21.17,4.42-31.5,7.28a10,10,0,1,1-5.31-19.24c10.85-3,22-5.58,33.13-7.66a10,10,0,0,1,11.65,8c.07.4.12.79.15,1.18A10,10,0,0,1,781.06,845.17Zm-81,24.76c-9.85,4.27-19.62,9-29.07,14.13a10,10,0,0,1-9.49-17.56c10-5.38,20.25-10.38,30.61-14.88a10,10,0,1,1,8,18.31Zm-73.42,42.26c-8.65,6.37-17.12,13.19-25.19,20.27a10,10,0,0,1-13.17-15c8.5-7.45,17.42-14.63,26.52-21.34a10,10,0,1,1,11.84,16.07Zm-62.17,57.56c-7,8.12-13.76,16.65-20.07,25.35a10,10,0,0,1-16.16-11.72c6.64-9.16,13.75-18.13,21.12-26.67a10,10,0,0,1,15.11,13Zm-47.89,69.88c-5,9.48-9.74,19.29-14,29.16a10,10,0,0,1-18.35-7.85c4.44-10.39,9.39-20.71,14.69-30.69a10,10,0,1,1,17.62,9.38Zm-3.23,370.6a10,10,0,0,1-13.52-4.06c-5.35-9.94-10.34-20.25-14.82-30.65a10,10,0,0,1,18.32-7.91c4.26,9.87,9,19.66,14.08,29.1a10,10,0,0,1-4.06,13.52Zm-27.95-291.89c-2.81,10.36-5.2,21-7.11,31.52a10,10,0,0,1-19.64-3.56c2-11.11,4.53-22.28,7.49-33.18a10,10,0,1,1,19.26,5.22Zm-6.44,212a10,10,0,0,1-12.27-7c-3-10.88-5.54-22-7.6-33.17a10,10,0,1,1,19.63-3.63c1.95,10.57,4.38,21.18,7.22,31.52a9.9,9.9,0,0,1,.34,2A10,10,0,0,1,479,1330.34ZM472.6,1202c-.42,10.72-.38,21.59.11,32.32a10,10,0,0,1-19.92,1.14,1.48,1.48,0,0,1,0-.21c-.53-11.3-.57-22.75-.13-34a10,10,0,0,1,19.93-.29A9.51,9.51,0,0,1,472.6,1202Z" transform="translate(-452.35 -455)"/><path class="cls-5" d="M557.25,1459.22a9.91,9.91,0,0,0-2.16-5.55c-3.22-4-6.4-8.17-9.47-12.34a10,10,0,0,0-16.08,11.82c3.23,4.39,6.58,8.76,10,13a10,10,0,0,0,17.75-6.92Z" transform="translate(-452.35 -455)"/></g><g class="cls-3"><path class="cls-6" d="M825,1603.7a10,10,0,0,0-9-9.26c-5.13-.47-10.33-1-15.46-1.74a10,10,0,0,0-2.64,19.79c5.4.72,10.87,1.33,16.27,1.83a10,10,0,0,0,10.85-9A10.72,10.72,0,0,0,825,1603.7Z" transform="translate(-452.35 -455)"/><path class="cls-7" d="M1249.61,1210.58a10,10,0,1,1-20,.36c-.19-10.49-.83-21.14-1.9-31.77a10,10,0,0,1,19.86-2q.69,6.91,1.16,13.78C1249.21,1197.48,1249.49,1204.09,1249.61,1210.58Zm-18.5-75a10,10,0,0,1-12-7.37c-2.48-10.29-5.42-20.58-8.74-30.59a10,10,0,1,1,18.94-6.29c3.5,10.54,6.6,21.38,9.2,32.2a10,10,0,0,1-7.36,12Zm15.76,129.3c-1.31,11-3.12,22.15-5.37,33a10,10,0,1,1-19.55-4c2.14-10.36,3.85-20.91,5.1-31.38a10,10,0,0,1,19.87.5A9.69,9.69,0,0,1,1246.87,1264.89Zm-42.78-210.52a10,10,0,0,1-13.36-4.54c-4.67-9.48-9.81-18.87-15.26-27.91a10,10,0,0,1,17.1-10.31c5.74,9.52,11.14,19.41,16.06,29.39a10,10,0,0,1-4.54,13.37Zm22.79,295.92c-3.7,10.46-7.91,20.9-12.5,31a10,10,0,0,1-18.19-8.23c4.36-9.64,8.36-19.56,11.88-29.49a10,10,0,1,1,18.81,6.67Zm-38.23,78.94c-5.92,9.42-12.3,18.7-19,27.58a10,10,0,1,1-16-12c6.34-8.44,12.4-17.26,18-26.21a10,10,0,1,1,16.9,10.62ZM1134.12,1498c-7.83,7.91-16.09,15.57-24.53,22.78a10,10,0,0,1-13-15.17c8-6.85,15.87-14.14,23.32-21.66a10,10,0,0,1,14.18,14Zm-68.23,55.2c-9.37,6-19.11,11.68-28.94,16.86a10,10,0,0,1-9.31-17.65c9.34-4.92,18.58-10.31,27.49-16a10,10,0,1,1,10.76,16.81Zm-78.73,38.88c-10.44,3.79-21.18,7.17-31.92,10.07a10,10,0,1,1-5.2-19.28c10.21-2.75,20.41-6,30.33-9.55a10,10,0,0,1,12.78,6,9.8,9.8,0,0,1,.58,2.73A10,10,0,0,1,987.16,1592.05Zm-85.25,20.63c-8.12,1-16.37,1.85-24.52,2.4-2.95.2-5.89.36-8.83.5a9.86,9.86,0,0,1-10.42-9.52,10,10,0,0,1,9.51-10.42q4.2-.2,8.4-.47c7.75-.53,15.59-1.29,23.31-2.29a10,10,0,0,1,11.17,8.62c0,.21.05.42.06.62A10,10,0,0,1,901.91,1612.68Z" transform="translate(-452.35 -455)"/><path class="cls-8" d="M1163.38,972.46a9.92,9.92,0,0,0-2.19-5.6c-3.4-4.2-7-8.41-10.55-12.51a10,10,0,1,0-15,13.17c3.42,3.9,6.79,7.9,10,11.89a10,10,0,0,0,17.71-6.95Z" transform="translate(-452.35 -455)"/></g><path class="cls-9" d="M993.26,954.25a4.67,4.67,0,0,0-5.42,0l-46.15,33.06a247.45,247.45,0,0,0-78.11-17.87l-27.21-49.78a4.65,4.65,0,0,0-4.88-2.36L764.36,928.7a4.66,4.66,0,0,0-3.82,3.84l-9.26,56a247.31,247.31,0,0,0-67.84,42.64l-54.48-16a4.66,4.66,0,0,0-5.11,1.77l-39.42,55.53a4.67,4.67,0,0,0,0,5.42l33,46.16a247.33,247.33,0,0,0-17.87,78.1l-49.78,27.21a4.65,4.65,0,0,0-2.36,4.88l11.39,67.14a4.69,4.69,0,0,0,3.84,3.82l56,9.25a247.31,247.31,0,0,0,42.64,67.84l-16,54.48a4.65,4.65,0,0,0,1.78,5.11l55.53,39.42a4.67,4.67,0,0,0,5.41,0l46.16-33.06a247.32,247.32,0,0,0,78.11,17.87l27.21,49.78a4.64,4.64,0,0,0,4.87,2.36l67.14-11.39a4.69,4.69,0,0,0,3.82-3.84l9.26-56a247.25,247.25,0,0,0,67.83-42.64l54.48,16a4.68,4.68,0,0,0,5.12-1.77l39.41-55.54a4.66,4.66,0,0,0,0-5.41l-33.06-46.16a247.33,247.33,0,0,0,17.87-78.1l49.79-27.21a4.69,4.69,0,0,0,2.36-4.88l-11.4-67.14a4.66,4.66,0,0,0-3.84-3.82l-56-9.26a247.2,247.2,0,0,0-42.65-67.83l16-54.48a4.66,4.66,0,0,0-1.78-5.11Z" transform="translate(-452.35 -455)"/><path class="cls-10" d="M916.2,1223.19a68.35,68.35,0,1,1,.07-10A68.53,68.53,0,0,1,916.2,1223.19ZM808,1251.85a52.48,52.48,0,1,0-12.39-38.21,53.2,53.2,0,0,0,0,7.78A52.12,52.12,0,0,0,808,1251.85Z" transform="translate(-452.35 -455)"/><path class="cls-10" d="M1015,1207.9a170.71,170.71,0,0,0-2-17.18h0c-.3-1.8-.64-3.6-1-5.39a169.53,169.53,0,0,0-7.45-25.91c0-.11-.08-.22-.13-.34-.12-.32-.24-.65-.37-1-.24-.63-.49-1.26-.74-1.88a4,4,0,0,0-4-2.51,4.07,4.07,0,0,0-1.22.28,4,4,0,0,0-2.22,5.19,160.51,160.51,0,0,1-41.46,178.7A159.32,159.32,0,0,1,873.87,1377a164.07,164.07,0,0,1-16.39,1.94A160.38,160.38,0,0,1,689,1245.73c-14.79-87.2,44.08-170.11,131.23-184.9a160.45,160.45,0,0,1,85,8.62,4,4,0,0,0,5.17-2.27,4,4,0,0,0-2.27-5.17A167.82,167.82,0,0,0,835.85,1051q-8.51.57-17,2c-91.51,15.54-153.3,102.64-137.77,194.11A168.35,168.35,0,0,0,858,1386.86a170.75,170.75,0,0,0,17.2-2A168.33,168.33,0,0,0,1015,1207.9Z" transform="translate(-452.35 -455)"/><g class="cls-3"><path class="cls-11" d="M1115.43,470.75a6.16,6.16,0,0,0-4.82-5.6c-5.11-1.14-10.32-2.13-15.49-3a6.16,6.16,0,0,0-1.95,12.17c4.93.79,9.9,1.74,14.77,2.82a6.16,6.16,0,0,0,7.49-6.43Z" transform="translate(-452.35 -455)"/><path class="cls-12" d="M1068.4,465.4a6.17,6.17,0,0,1-6.38,6,256.49,256.49,0,0,0-25.86.42c-1.8.12-3.62.27-5.43.43a6.16,6.16,0,0,1-6.68-5.6,6.36,6.36,0,0,1,5.6-6.68c1.9-.17,3.79-.32,5.69-.45a269.39,269.39,0,0,1,27.11-.44,6.16,6.16,0,0,1,5.94,5.74C1068.4,465,1068.4,465.19,1068.4,465.4Zm-68.63,11.45a254.47,254.47,0,0,0-30.15,8.39,6.16,6.16,0,0,1-4-11.65,268,268,0,0,1,31.61-8.8,6.16,6.16,0,0,1,7.31,4.75,5.32,5.32,0,0,1,.12.88A6.15,6.15,0,0,1,999.77,476.85Zm-59,20.45a254.46,254.46,0,0,0-27.17,15.55,6.17,6.17,0,1,1-6.78-10.3,266.1,266.1,0,0,1,28.5-16.31,6.16,6.16,0,0,1,8.25,2.81,6,6,0,0,1,.62,2.31A6.15,6.15,0,0,1,940.73,497.3Zm-52.21,34.34A252.71,252.71,0,0,0,866,553.36a6.16,6.16,0,1,1-9.09-8.33,269,269,0,0,1,23.63-22.78,6.17,6.17,0,0,1,8,9.39Zm-42.25,46a256.52,256.52,0,0,0-16.59,26.54,6.16,6.16,0,1,1-10.83-5.88,270.08,270.08,0,0,1,17.38-27.82,6.17,6.17,0,0,1,10,7.16Zm-29.79,54.9a253.44,253.44,0,0,0-9.6,29.76,6.17,6.17,0,1,1-12-3.05A267.58,267.58,0,0,1,805,628.08a6.17,6.17,0,0,1,11.48,4.5ZM801,693.08a251.81,251.81,0,0,0-2,31.23,6.17,6.17,0,0,1-12.34,0,266.64,266.64,0,0,1,2.11-32.74,6.16,6.16,0,0,1,12.26.35A6.06,6.06,0,0,1,801,693.08Zm1,100.73a6.16,6.16,0,0,1-7.47-4.5,269.47,269.47,0,0,1-5.36-28c-.21-1.44-.39-2.86-.56-4.29a6.16,6.16,0,0,1,12.24-1.47c.16,1.34.34,2.69.53,4.05a255,255,0,0,0,5.12,26.74,6.79,6.79,0,0,1,.17,1.07A6.18,6.18,0,0,1,802,793.81Z" transform="translate(-452.35 -455)"/></g><g class="cls-3"><path class="cls-13" d="M1318.82,711a267.22,267.22,0,0,1-.19,32.27,6.17,6.17,0,0,1-12.31-.83,252.83,252.83,0,0,0,.19-30.78,6.17,6.17,0,0,1,12.31-.74ZM1310.14,686a6.16,6.16,0,0,1-7.14-5,257.94,257.94,0,0,0-7.15-30,6.17,6.17,0,0,1,11.8-3.58,270.45,270.45,0,0,1,7.49,31.4,4.91,4.91,0,0,1,.08.67A6.16,6.16,0,0,1,1310.14,686Zm4.36,89.23a269.46,269.46,0,0,1-8,31.28,6.17,6.17,0,0,1-11.75-3.77,255.71,255.71,0,0,0,7.64-29.83,6.16,6.16,0,0,1,12.2.74A6.49,6.49,0,0,1,1314.5,775.24Zm-21.24-149.91a6.16,6.16,0,0,1-8.13-3.14A252.62,252.62,0,0,0,1271,594.85a6.16,6.16,0,0,1,10.58-6.33,265.61,265.61,0,0,1,14.86,28.68,6,6,0,0,1,.51,2.08A6.17,6.17,0,0,1,1293.26,625.33Zm1.51,211.24A268.67,268.67,0,0,1,1279.49,865a6.17,6.17,0,0,1-10.49-6.48,255.2,255.2,0,0,0,14.58-27.11,6.16,6.16,0,0,1,11.74,2.17A6.09,6.09,0,0,1,1294.77,836.57Zm-33.87,54.81a268.6,268.6,0,0,1-21.64,24,6.16,6.16,0,0,1-8.63-8.8,258.93,258.93,0,0,0,20.65-22.86,6.16,6.16,0,0,1,9.62,7.71Zm-46,45.12a266.35,266.35,0,0,1-26.76,18.07,6.17,6.17,0,0,1-6.27-10.62,251.26,251.26,0,0,0,25.52-17.23,6.17,6.17,0,1,1,7.51,9.78Z" transform="translate(-452.35 -455)"/><path class="cls-14" d="M1264.42,565a6.18,6.18,0,0,0-1.29-3.37c-3.24-4.17-6.63-8.25-10.05-12.15a6.17,6.17,0,1,0-9.26,8.15c3.26,3.71,6.49,7.61,9.59,11.58a6.16,6.16,0,0,0,11-4.21Z" transform="translate(-452.35 -455)"/></g><path class="cls-15" d="M1148.15,549.09a3.12,3.12,0,0,0-3.63,0l-30.88,22.12a165.44,165.44,0,0,0-52.27-12L1043.17,526a3.13,3.13,0,0,0-3.27-1.58L995,532a3.12,3.12,0,0,0-2.56,2.56L986.23,572a165.44,165.44,0,0,0-45.39,28.53l-36.46-10.68a3.1,3.1,0,0,0-3.42,1.19l-26.38,37.15a3.12,3.12,0,0,0,0,3.63l22.12,30.88a165.51,165.51,0,0,0-12,52.27L851.44,733.2a3.12,3.12,0,0,0-1.58,3.26l7.63,44.93a3.11,3.11,0,0,0,2.56,2.55l37.46,6.2a165.38,165.38,0,0,0,28.54,45.39L915.36,872a3.12,3.12,0,0,0,1.19,3.43l37.16,26.37a3.11,3.11,0,0,0,3.62,0l30.89-22.12a165.38,165.38,0,0,0,52.26,12l18.21,33.31a3.11,3.11,0,0,0,3.26,1.58l44.93-7.62a3.12,3.12,0,0,0,2.55-2.57l6.2-37.46A165.59,165.59,0,0,0,1161,850.32L1197.47,861a3.15,3.15,0,0,0,3.43-1.19l26.37-37.16a3.12,3.12,0,0,0,0-3.63l-22.12-30.88a165.44,165.44,0,0,0,12-52.27l33.31-18.2a3.12,3.12,0,0,0,1.58-3.27l-7.62-44.92a3.15,3.15,0,0,0-2.57-2.56l-37.46-6.19a165.44,165.44,0,0,0-28.53-45.39l10.69-36.46a3.13,3.13,0,0,0-1.19-3.42Z" transform="translate(-452.35 -455)"/><path class="cls-10" d="M1097.41,729.12a46.52,46.52,0,1,1,0-6.91A48.33,48.33,0,0,1,1097.41,729.12Zm-49.2,30.51a34.3,34.3,0,0,0,36.91-31.48h0a34.3,34.3,0,0,0-68.39-5.43,35.36,35.36,0,0,0,0,5A34.37,34.37,0,0,0,1048.21,759.63Z" transform="translate(-452.35 -455)"/><path class="cls-10" d="M1166.17,718.47a117.4,117.4,0,0,0-7.68-34.53l-.39-1a6.17,6.17,0,0,0-6.14-3.87,6.34,6.34,0,0,0-1.88.44,6.17,6.17,0,0,0-3.43,8,104.22,104.22,0,0,1,6,21.27h0c.07.4.13.81.19,1.2a102.88,102.88,0,0,1-4.56,50.63,104.13,104.13,0,0,1-12.78,24.85c0,.07-.09.13-.13.19l-.41.58a103.79,103.79,0,1,1-102-162.4c3.48-.59,7-1,10.47-1.24a103.49,103.49,0,0,1,44.53,6.82,6.17,6.17,0,1,0,4.48-11.49,116.13,116.13,0,1,0,73.76,100.53Z" transform="translate(-452.35 -455)"/></g><path class="cls-16" d="M1095.2,732.08c-10.11,407.83-42.9,1814.6-27.24,2313.11a100.07,100.07,0,0,0,96.8,96.93c261.21,8.55,1012.62,30.22,1439.86,12.29a168.53,168.53,0,0,0,161.6-164.86c8.88-428.07,28.46-1632.07-18.09-2183.63a137.55,137.55,0,0,0-123.44-125.31c-284.46-28.45-1040-98-1409.1-74.06A128.9,128.9,0,0,0,1095.2,732.08Z" transform="translate(-452.35 -455)"/><path class="cls-17" d="M1201.34,858.81c-14.27,334-59.27,1445.18-45,1856.07A116.25,116.25,0,0,0,1265.77,2827c247,14.45,880.53,46.32,1242.82,17.31A130.65,130.65,0,0,0,2628.54,2721c18.36-340.76,71.07-1375.42,57.38-1781.7a128.44,128.44,0,0,0-117-123.55c-267.21-24-953.51-81.08-1261.37-64.28A112.32,112.32,0,0,0,1201.34,858.81Z" transform="translate(-452.35 -455)"/><path class="cls-18" d="M2625.91,1297.87c43.19-13.6,114.05-44.7,147.68-108.4,7.37-14-.61-31.13-15.94-35-75.87-19-279.71-90.35-261-304.66,23-262.81,317.88-280.33,506-228.07s283.53,181.28,240.06,379c-41,186.41-399.16,326.14-615.17,310.81C2619.84,1311,2618.49,1300.21,2625.91,1297.87Z" transform="translate(-452.35 -455)"/><path class="cls-19" d="M2885.53,1164.47c-7.11,0-11.24-.22-11.59-.24a6.76,6.76,0,0,1,.75-13.5c.18,0,18.21,1,45-1.28a6.76,6.76,0,0,1,1.14,13.47C2905.91,1164.17,2893.74,1164.47,2885.53,1164.47Z" transform="translate(-452.35 -455)"/><path class="cls-19" d="M3007.45,1146.51a6.77,6.77,0,0,1-2-13.23c82-25.17,135.1-73.17,157.79-142.68,23.11-70.82,20.87-136.94-6.49-191.22-20.71-41.09-48.74-61.38-49-61.58a6.76,6.76,0,0,1,7.82-11c1.24.88,30.66,22,52.93,65.85,20.45,40.22,38.36,108,7.61,202.17-23.79,72.89-81.43,125.25-166.67,151.42A6.86,6.86,0,0,1,3007.45,1146.51Z" transform="translate(-452.35 -455)"/><g class="cls-20"><path class="cls-21" d="M3023.07,786.37H2585.13a16.93,16.93,0,0,1-16.94-16.94h0a16.94,16.94,0,0,1,16.94-16.95h437.94A16.94,16.94,0,0,1,3040,769.43h0A16.93,16.93,0,0,1,3023.07,786.37Z" transform="translate(-452.35 -455)"/><path class="cls-22" d="M3075.69,852.75H2637.75a16.94,16.94,0,0,1-16.94-16.94h0a17,17,0,0,1,16.94-16.95h437.94a16.94,16.94,0,0,1,16.94,16.95h0A16.93,16.93,0,0,1,3075.69,852.75Z" transform="translate(-452.35 -455)"/><path class="cls-22" d="M2951.15,985.51h-313.4a16.94,16.94,0,0,1-16.94-16.94h0a17,17,0,0,1,16.94-17h313.4a17,17,0,0,1,16.95,17h0A16.94,16.94,0,0,1,2951.15,985.51Z" transform="translate(-452.35 -455)"/><path class="cls-21" d="M3124.8,919.13H2686.87a16.94,16.94,0,0,1-16.95-16.94h0a17,17,0,0,1,16.95-17H3124.8a17,17,0,0,1,16.95,17h0A16.94,16.94,0,0,1,3124.8,919.13Z" transform="translate(-452.35 -455)"/></g><path class="cls-23" d="M2319.38,1755.92l-764.77-27.57a62.12,62.12,0,0,1-59.67-64.12h0a62.12,62.12,0,0,1,64.13-59.67l764.77,27.56a62.12,62.12,0,0,1,59.67,64.13h0A62.12,62.12,0,0,1,2319.38,1755.92Z" transform="translate(-452.35 -455)"/><path class="cls-24" d="M2481.81,1679.14l-1075.43-38.76a26.33,26.33,0,0,1-25.29-27.18l19-525.68a48,48,0,0,1,49.52-46.08l1032.3,37.2a48,48,0,0,1,46.08,49.53l-19,525.68A26.33,26.33,0,0,1,2481.81,1679.14Z" transform="translate(-452.35 -455)"/><path class="cls-25" d="M1517.73,1677.44l850.36,30.65c76.32,2.75,136.52,67.45,133.77,143.77l-4,111.57c-11.17,310.18-284.21,835.41-594.39,824.23h0c-310.17-11.18-544.69-554.71-533.51-864.88l4-111.57C1376.7,1734.89,1441.4,1674.69,1517.73,1677.44Z" transform="translate(-452.35 -455)"/><path class="cls-26" d="M2361.08,1417.83a81.25,81.25,0,0,1-76.37,78.26c-226.31,13.1-460.3,5.31-700.38-25.46a81.34,81.34,0,0,1-70.88-83.61l1.58-44a81.31,81.31,0,0,1,76-78.23C1826,1250,2060.3,1254.33,2293.69,1289a81.23,81.23,0,0,1,69,83.34Z" transform="translate(-452.35 -455)"/><circle class="cls-27" cx="1709.31" cy="1372.3" r="51.52" transform="translate(-883.54 444.84) rotate(-26.31)"/><path class="cls-28" d="M2218.28,1390.65a51.52,51.52,0,1,1-49.63-53.35A51.52,51.52,0,0,1,2218.28,1390.65Z" transform="translate(-452.35 -455)"/><path class="cls-29" d="M1708.28,1444a3,3,0,0,1,2.92-3.14h0a3,3,0,0,1,3.15,3h0a3,3,0,0,1-3,3.08h-.16A3,3,0,0,1,1708.28,1444Zm-15.52,1.15a3.09,3.09,0,0,1-2.29-3.66h0a3.05,3.05,0,0,1,3.66-2.29h0a3.06,3.06,0,0,1,2.29,3.66h0a3.06,3.06,0,0,1-3.06,2.37h0C1693.14,1445.18,1693,1445.12,1692.76,1445.11Zm33.33-3.15a3,3,0,0,1,2.12-3.72h0a3,3,0,0,1,3.73,2.06h0a3,3,0,0,1-2.07,3.78h0a2.81,2.81,0,0,1-.94.07h0A3,3,0,0,1,1726.09,1442Zm-50.9-3.27a3,3,0,0,1-1.28-4.06h0a3,3,0,0,1,4.07-1.34h0a3,3,0,0,1,1.28,4.06h0a2.9,2.9,0,0,1-2.81,1.66h0A2.73,2.73,0,0,1,1675.19,1438.69Zm67.71-3.06a3.07,3.07,0,0,1,1.09-4.21h0a3.1,3.1,0,0,1,4.15,1.09h0a3.1,3.1,0,0,1-1.09,4.2h0a3,3,0,0,1-1.67.38h0A3,3,0,0,1,1742.9,1435.63Zm-83.13-7.52a3,3,0,0,1-.24-4.3h0a3.11,3.11,0,0,1,4.31-.24h0a3.11,3.11,0,0,1,.23,4.31h0a3.09,3.09,0,0,1-2.41,1h0A2.84,2.84,0,0,1,1659.77,1428.11Zm97.77-2.81a3.11,3.11,0,0,1,0-4.35h0a3,3,0,0,1,4.3,0h0a3,3,0,0,1-.05,4.3h0a2.87,2.87,0,0,1-2.23.86h0A3.3,3.3,0,0,1,1757.54,1425.3Zm-110.1-11.24a3,3,0,0,1,.81-4.21h0a3.07,3.07,0,0,1,4.27.81h0a3,3,0,0,1-.87,4.21h0a2.91,2.91,0,0,1-1.79.54h0A3,3,0,0,1,1647.44,1414.06Zm121.78-2.44a3.07,3.07,0,0,1-1.06-4.17h0a3.07,3.07,0,0,1,4.17-1.06h0a3,3,0,0,1,1.06,4.17h0a3,3,0,0,1-2.75,1.49h0A2.76,2.76,0,0,1,1769.22,1411.62ZM1639,1397.39h0a3.09,3.09,0,0,1,1.85-3.9h0a3.11,3.11,0,0,1,3.9,1.85h0a3.09,3.09,0,0,1-1.85,3.9h0a4.31,4.31,0,0,1-1.16.18h0A3.07,3.07,0,0,1,1639,1397.39Zm138.13-1.91a3,3,0,0,1-2.07-3.76h0a3.12,3.12,0,0,1,3.77-2.07h0a3,3,0,0,1,2.06,3.77h0v0h0a3.07,3.07,0,0,1-3.05,2.15h0A3,3,0,0,1,1777.13,1395.48ZM1635,1379.12a3.07,3.07,0,0,1,2.76-3.31h0a3.08,3.08,0,0,1,3.32,2.76h0a3.09,3.09,0,0,1-2.77,3.32h0l-.38,0h0A3.06,3.06,0,0,1,1635,1379.12Zm142.84-4.32v-.11h0c0-.06,0-.11,0-.22h0a3,3,0,0,1,3.14-2.92h0a3,3,0,0,1,2.91,3.13h0v.17h0a.86.86,0,0,0,0,.16h0a3,3,0,0,1-3.13,2.92h0A3,3,0,0,1,1777.82,1374.8Zm0-.33h0v0h0Zm-139.66-10.55a3.07,3.07,0,0,1-2.58-3.45h0a3,3,0,0,1,3.51-2.52h0a3,3,0,0,1,2.52,3.45h0a3,3,0,0,1-3.12,2.59h0C1638.39,1364,1638.28,1363.93,1638.17,1363.92Zm138.07-6.54a3,3,0,0,1,2.28-3.61h0a3.07,3.07,0,0,1,3.67,2.29h0a3.1,3.1,0,0,1-2.34,3.66h0a4,4,0,0,1-.77,0h0A3,3,0,0,1,1776.24,1357.38Zm-133.81-10.88a3.07,3.07,0,0,1-1.56-4h0a3.06,3.06,0,0,1,4-1.56h0a3.06,3.06,0,0,1,1.56,4h0a3.14,3.14,0,0,1-2.93,1.82h0A4.08,4.08,0,0,1,1642.43,1346.5Zm128-5.25h0a3,3,0,0,1,1.31-4.08h0a3,3,0,0,1,4.08,1.3h0a3,3,0,0,1-1.3,4.09h0a3.08,3.08,0,0,1-1.5.33h0A3,3,0,0,1,1770.43,1341.25ZM1651,1330.72a3.08,3.08,0,0,1-.56-4.31h0a3.06,3.06,0,0,1,4.26-.51h0a3,3,0,0,1,.56,4.26h0a3.09,3.09,0,0,1-2.52,1.18h0A2.93,2.93,0,0,1,1651,1330.72Zm109.77-3.7h0a3,3,0,0,1,.26-4.29h0a3.11,3.11,0,0,1,4.34.27h0a3,3,0,0,1-.26,4.29h0a3.19,3.19,0,0,1-2.12.75h0A3,3,0,0,1,1760.76,1327Zm-97.61-9.52a3.11,3.11,0,0,1,.54-4.28h0a3.1,3.1,0,0,1,4.27.54h0a3.09,3.09,0,0,1-.54,4.28h0a3,3,0,0,1-2,.64h0A3.06,3.06,0,0,1,1663.15,1317.5Zm84.74-1.85h0a3,3,0,0,1-.79-4.22h0a3.06,3.06,0,0,1,4.22-.83h0a3.11,3.11,0,0,1,.84,4.27h0a3.16,3.16,0,0,1-2.64,1.28h0A3.1,3.1,0,0,1,1747.89,1315.65Zm-69.68-7.91a3.08,3.08,0,0,1,1.57-4h0a3.06,3.06,0,0,1,4,1.63h0a3,3,0,0,1-1.63,4h0a2.48,2.48,0,0,1-1.28.29h0A3,3,0,0,1,1678.21,1307.74Zm54.43.09h0a3.12,3.12,0,0,1-1.85-3.92h0a3,3,0,0,1,3.92-1.79h0a2.94,2.94,0,0,1,1.84,3.86h0a3,3,0,0,1-2.94,2h0A2.43,2.43,0,0,1,1732.64,1307.83Zm-37.42-5.81a3,3,0,0,1,2.54-3.44h0a3,3,0,0,1,3.49,2.5h0a3.09,3.09,0,0,1-2.55,3.49h0a2.42,2.42,0,0,1-.6,0h0A3,3,0,0,1,1695.22,1302Zm20.64,2.06h0a3.07,3.07,0,0,1-2.75-3.35h0a3.12,3.12,0,0,1,3.35-2.74h0a3.12,3.12,0,0,1,2.75,3.35h0a3.1,3.1,0,0,1-3.13,2.75h-.22Z" transform="translate(-452.35 -455)"/><path class="cls-30" d="M2165.51,1460.44a3,3,0,0,1,2.93-3.14h0a3,3,0,0,1,3.14,3h0a3,3,0,0,1-3,3.08h-.16A3,3,0,0,1,2165.51,1460.44Zm-15.52,1.15a3.09,3.09,0,0,1-2.29-3.66h0a3.05,3.05,0,0,1,3.66-2.29h0a3.08,3.08,0,0,1,2.3,3.66h0a3.08,3.08,0,0,1-3.07,2.37h0C2150.37,1461.66,2150.21,1461.6,2150,1461.59Zm33.33-3.15a3,3,0,0,1,2.12-3.73h0a3,3,0,0,1,3.73,2.07h0a3,3,0,0,1-2.07,3.78h0a2.81,2.81,0,0,1-.94.07h0A3,3,0,0,1,2183.32,1458.44Zm-50.89-3.27a3,3,0,0,1-1.29-4.06h0a3,3,0,0,1,4.07-1.35h0a3,3,0,0,1,1.29,4.07h0a2.91,2.91,0,0,1-2.82,1.66h0A2.67,2.67,0,0,1,2132.43,1455.17Zm67.7-3.06a3.07,3.07,0,0,1,1.09-4.21h0a3.1,3.1,0,0,1,4.15,1.09h0a3.09,3.09,0,0,1-1.09,4.2h0a3,3,0,0,1-1.66.38h0A3,3,0,0,1,2200.13,1452.11Zm-83.13-7.52a3,3,0,0,1-.23-4.3h0a3.09,3.09,0,0,1,4.3-.24h0a3.1,3.1,0,0,1,.23,4.31h0a3.11,3.11,0,0,1-2.4,1h0A2.84,2.84,0,0,1,2117,1444.59Zm97.78-2.81a3.11,3.11,0,0,1,0-4.35h0a3,3,0,0,1,4.3,0h0a3,3,0,0,1,0,4.3h0a2.91,2.91,0,0,1-2.23.86h0A3.3,3.3,0,0,1,2214.78,1441.78Zm-110.11-11.24a3.05,3.05,0,0,1,.81-4.21h0a3.07,3.07,0,0,1,4.27.81h0a3,3,0,0,1-.87,4.21h0a2.9,2.9,0,0,1-1.78.54h0A3,3,0,0,1,2104.67,1430.54Zm121.78-2.44a3.08,3.08,0,0,1-1.06-4.17h0a3.07,3.07,0,0,1,4.17-1.06h0a3,3,0,0,1,1.06,4.17h0a3,3,0,0,1-2.75,1.49h0A2.76,2.76,0,0,1,2226.45,1428.1Zm-130.22-14.23h0a3.09,3.09,0,0,1,1.85-3.9h0a3.11,3.11,0,0,1,3.9,1.85h0a3.09,3.09,0,0,1-1.85,3.9h0a4.25,4.25,0,0,1-1.16.18h0A3.07,3.07,0,0,1,2096.23,1413.87Zm138.13-1.91a3,3,0,0,1-2.07-3.76h0a3.12,3.12,0,0,1,3.77-2.07h0a3,3,0,0,1,2.07,3.77h0v0h0a3.06,3.06,0,0,1-3,2.15h0A3,3,0,0,1,2234.36,1412Zm-142.15-16.36a3.08,3.08,0,0,1,2.76-3.32h0a3.09,3.09,0,0,1,3.32,2.77h0a3.09,3.09,0,0,1-2.76,3.32h0l-.39,0h0A3.07,3.07,0,0,1,2092.21,1395.6Zm142.84-4.32v-.11h0a1.28,1.28,0,0,0,0-.22h0a3,3,0,0,1,3.14-2.92h0a3,3,0,0,1,2.91,3.13h0v.17h0c0,.05,0,.11,0,.16h0a3,3,0,0,1-3.13,2.92h0A3.05,3.05,0,0,1,2235.05,1391.28Zm0-.33h0v0h0ZM2095.4,1380.4a3.06,3.06,0,0,1-2.57-3.45h0a3,3,0,0,1,3.5-2.52h0a3,3,0,0,1,2.52,3.45h0a3,3,0,0,1-3.12,2.59h0C2095.62,1380.46,2095.51,1380.41,2095.4,1380.4Zm138.07-6.54a3,3,0,0,1,2.28-3.61h0a3.07,3.07,0,0,1,3.67,2.29h0a3.1,3.1,0,0,1-2.34,3.66h0a4,4,0,0,1-.77,0h0A3,3,0,0,1,2233.47,1373.86ZM2099.67,1363a3.07,3.07,0,0,1-1.57-4h0a3.07,3.07,0,0,1,4-1.56h0a3.08,3.08,0,0,1,1.56,4h0a3.16,3.16,0,0,1-2.93,1.82h0A4,4,0,0,1,2099.67,1363Zm128-5.25h0a3,3,0,0,1,1.31-4.08h0a3,3,0,0,1,4.09,1.3h0a3,3,0,0,1-1.31,4.09h0a3,3,0,0,1-1.5.33h0A3,3,0,0,1,2227.66,1357.73Zm-119.44-10.53a3.08,3.08,0,0,1-.56-4.31h0a3.06,3.06,0,0,1,4.26-.51h0a3,3,0,0,1,.56,4.26h0a3.09,3.09,0,0,1-2.52,1.18h0A2.93,2.93,0,0,1,2108.22,1347.2Zm109.77-3.7h0a3,3,0,0,1,.26-4.29h0a3.12,3.12,0,0,1,4.35.27h0a3,3,0,0,1-.27,4.29h0a3.17,3.17,0,0,1-2.12.75h0A3,3,0,0,1,2218,1343.5Zm-97.61-9.52a3.11,3.11,0,0,1,.54-4.28h0a3.1,3.1,0,0,1,4.28.54h0a3.11,3.11,0,0,1-.54,4.28h0a3,3,0,0,1-2,.64h0A3.06,3.06,0,0,1,2120.38,1334Zm84.74-1.85h0a3,3,0,0,1-.78-4.22h0a3,3,0,0,1,4.21-.83h0a3.11,3.11,0,0,1,.84,4.27h0a3.16,3.16,0,0,1-2.64,1.28h0A3.13,3.13,0,0,1,2205.12,1332.13Zm-69.68-7.91a3.08,3.08,0,0,1,1.58-4h0a3.06,3.06,0,0,1,4,1.63h0a3,3,0,0,1-1.63,4h0a2.45,2.45,0,0,1-1.27.29h0A3,3,0,0,1,2135.44,1324.22Zm54.43.09h0a3.12,3.12,0,0,1-1.85-3.92h0a3,3,0,0,1,3.92-1.79h-.05a2.94,2.94,0,0,1,1.84,3.86h0a3,3,0,0,1-2.93,2h0A2.53,2.53,0,0,1,2189.87,1324.31Zm-37.42-5.81a3,3,0,0,1,2.55-3.44h0a3,3,0,0,1,3.49,2.5h0a3.11,3.11,0,0,1-2.55,3.49h0a2.5,2.5,0,0,1-.61,0h0A3.05,3.05,0,0,1,2152.45,1318.5Zm20.64,2.06h0a3.07,3.07,0,0,1-2.75-3.35h0a3.12,3.12,0,0,1,3.35-2.74h0a3.12,3.12,0,0,1,2.75,3.35h0a3.1,3.1,0,0,1-3.13,2.75h-.22Z" transform="translate(-452.35 -455)"/><path class="cls-31" d="M1484.25,922.55a28.59,28.59,0,1,1-27.54-29.6A28.59,28.59,0,0,1,1484.25,922.55Z" transform="translate(-452.35 -455)"/><path class="cls-32" d="M1447.17,1157.62s67.92,11.19,108.45-76.55l-16.79-38a25.42,25.42,0,0,0-33.79-12.86l-39.87,18.18a25.4,25.4,0,0,0-14.86,22.2Z" transform="translate(-452.35 -455)"/><path class="cls-33" d="M1460.87,934.94a1.59,1.59,0,0,0-3,.8l19,126.25a8.66,8.66,0,0,0,13.1,6.08l7.44-4.58a15.07,15.07,0,0,0,6.15-18.26Z" transform="translate(-452.35 -455)"/><path class="cls-34" d="M2455.71,957.56a28.59,28.59,0,1,0,29.6-27.54A28.59,28.59,0,0,0,2455.71,957.56Z" transform="translate(-452.35 -455)"/><path class="cls-35" d="M2475.77,1194.69s-68.55,6.27-102.65-84.15l19.48-36.73a25.4,25.4,0,0,1,34.62-10.4l38.47,21a25.42,25.42,0,0,1,13.22,23.22Z" transform="translate(-452.35 -455)"/><path class="cls-36" d="M2481.12,972.62l-27.91,124a9,9,0,0,1-14.07,5.34l-6.64-4.78a15.09,15.09,0,0,1-4.82-18.67l50.46-106.93A1.58,1.58,0,0,1,2481.12,972.62Z" transform="translate(-452.35 -455)"/><path class="cls-37" d="M1641.07,1194.44a30.28,30.28,0,0,1-.46-60.5c220.65-11.6,421.7-5,614.61,20.21a30.28,30.28,0,0,1-7.84,60c-189.22-24.71-386.65-31.18-603.6-19.79C1642.87,1194.46,1642,1194.47,1641.07,1194.44Z" transform="translate(-452.35 -455)"/><path class="cls-38" d="M1937.56,1516.34c-122.29-4.4-245.33-14.91-368.32-31.48-45.1-6.07-77.78-47.3-76-95.89l1.77-49c1.74-48.22,37-87,82-90.12,265.51-18.6,504.92-10.38,731.92,25.13,43.92,6.87,75.76,48,74,95.6l-1.83,50.71c-1.74,48.47-37.15,87.23-82.36,90.14A3599.42,3599.42,0,0,1,1937.56,1516.34ZM1962.65,1248c-122.89-4.43-250.72-1.9-385.26,7.53-42.1,3-75.08,39.33-76.72,84.63l-1.76,49c-1.65,45.66,28.91,84.37,71.09,90,244.77,33,489.84,41.89,728.4,26.5,42.27-2.73,75.39-39.13,77-84.67l1.82-50.71c1.62-44.75-28.14-83.34-69.22-89.76C2196.46,1263.12,2081.87,1252.28,1962.65,1248Z" transform="translate(-452.35 -455)"/><path class="cls-39" d="M2125.93,2040.93l-396.14-14.28a68.91,68.91,0,0,1-66.3-71.25l4.07-112.79a68.89,68.89,0,0,1,71.25-66.3L2135,1790.59a68.89,68.89,0,0,1,66.3,71.25l-4.07,112.79A68.89,68.89,0,0,1,2125.93,2040.93Zm-387.32-259.12a63.39,63.39,0,0,0-65.55,61L1669,1955.6a63.38,63.38,0,0,0,61,65.55l396.14,14.28a63.39,63.39,0,0,0,65.55-61l4.07-112.79a63.39,63.39,0,0,0-61-65.56Z" transform="translate(-452.35 -455)"/><path class="cls-40" d="M1773.91,1846.44a9.2,9.2,0,0,1-2.14-.3,8.79,8.79,0,0,1-2-.67,10.11,10.11,0,0,1-1.89-1.12,8.06,8.06,0,0,1-1.6-1.44,11.1,11.1,0,0,1-3-7.87,11.22,11.22,0,0,1,3.52-7.69,11.45,11.45,0,0,1,15.57.56,19.08,19.08,0,0,1,1.32,1.75,12.42,12.42,0,0,1,.92,1.91,9.6,9.6,0,0,1,.53,2.11,9.19,9.19,0,0,1,.14,2.15,9.75,9.75,0,0,1-.29,2.14,8.38,8.38,0,0,1-.69,2,10.72,10.72,0,0,1-1,1.89,14.05,14.05,0,0,1-1.44,1.6,8.13,8.13,0,0,1-1.75,1.32,9.09,9.09,0,0,1-1.91,1,9.54,9.54,0,0,1-2.12.53A9,9,0,0,1,1773.91,1846.44Z" transform="translate(-452.35 -455)"/><path class="cls-41" d="M2023.16,1844.41a11,11,0,0,1,11.35-10.61h0a11.06,11.06,0,0,1,10.66,11.4h0a11,11,0,0,1-11.46,10.6h0A11,11,0,0,1,2023.16,1844.41Zm-52-1.88a11,11,0,0,1,11.4-10.6h0a11,11,0,0,1,10.61,11.4h0a11,11,0,0,1-11.4,10.6h0A11,11,0,0,1,1971.17,1842.53Zm-51.94-1.87a11,11,0,0,1,11.4-10.61h0a11,11,0,0,1,10.61,11.4h0a11,11,0,0,1-11.4,10.61h0A11,11,0,0,1,1919.23,1840.66Zm-52-1.87a11,11,0,0,1,11.4-10.61h0a11,11,0,0,1,10.6,11.4h0a11,11,0,0,1-11.4,10.61h0A11,11,0,0,1,1867.24,1838.79Zm-51.94-1.88a11,11,0,0,1,11.4-10.6h0a11,11,0,0,1,10.6,11.4h0a11,11,0,0,1-11.4,10.61h0A11,11,0,0,1,1815.3,1836.91Z" transform="translate(-452.35 -455)"/><path class="cls-42" d="M2085.71,1857.68a10.81,10.81,0,0,1-7.64-3.53,7.4,7.4,0,0,1-1.32-1.7,12.75,12.75,0,0,1-1-1.91,10.19,10.19,0,0,1-.53-2.11,9.76,9.76,0,0,1-.14-2.15,10.81,10.81,0,0,1,3.53-7.64,7.4,7.4,0,0,1,1.7-1.32,7.63,7.63,0,0,1,2-1,9.06,9.06,0,0,1,2.06-.54,11.16,11.16,0,0,1,9.85,3.39,11,11,0,0,1,2.91,7.87,12.2,12.2,0,0,1-1,4.21,9.12,9.12,0,0,1-1.11,1.83,9.69,9.69,0,0,1-1.38,1.6,10.24,10.24,0,0,1-1.76,1.32,9.33,9.33,0,0,1-1.91,1,10.19,10.19,0,0,1-2.11.53A10.41,10.41,0,0,1,2085.71,1857.68Z" transform="translate(-452.35 -455)"/><path class="cls-43" d="M2732.09,3233c30.37,2.62,83.06,6.88,124.6,8.71,25,1.1,39.35-1.34,47.63-4.66,0,.94,0,1.82-.08,2.64a8.57,8.57,0,0,1-8.16,8.11,1457.49,1457.49,0,0,1-163.15.16,6.11,6.11,0,0,1-5-9.19A49.29,49.29,0,0,1,2732.09,3233Z" transform="translate(-452.35 -455)"/><path class="cls-44" d="M2856.69,3241.75c-41.54-1.83-94.23-6.09-124.6-8.71,29.85-36.63,124.6-61.31,124.6-61.31h26.76c18.41,26.53,21.07,51.79,20.87,65.36C2896,3240.41,2881.66,3242.85,2856.69,3241.75Z" transform="translate(-452.35 -455)"/><path class="cls-45" d="M2888,3128l-2.51,49.56a11.31,11.31,0,0,1-9.66,10.64,44,44,0,0,1-20.1-1.67,13.38,13.38,0,0,1-9-10.29L2838,3128Z" transform="translate(-452.35 -455)"/><path class="cls-46" d="M3235.53,3241.38c13.17-1.83,19.13-8.68,21.63-16a1.46,1.46,0,0,0,.05.2c1.93,7.71-2.56,15.71-11.54,19.51-10.85,4.59-22.71,5.38-31.92,5-9.89-.41-19-4.5-23.94-11l-.08-.1C3199.65,3243.87,3213.58,3244.44,3235.53,3241.38Z" transform="translate(-452.35 -455)"/><path class="cls-47" d="M3173.46,3127.72h22.06c33.62-.68,54.73,70.22,61.64,97.67-2.5,7.31-8.46,14.16-21.63,16-22,3.06-35.88,2.49-45.8-2.42-18.16-23.9-27.16-58.9-31.49-79.33C3153.32,3136.4,3173.46,3127.72,3173.46,3127.72Z" transform="translate(-452.35 -455)"/><path class="cls-48" d="M3192.69,3081.73l12.25,48.74a13.24,13.24,0,0,1-6.88,15c-6.86,3.52-16.51,7.22-25.38,6.14a11,11,0,0,1-9-7.36l-18-51.28Z" transform="translate(-452.35 -455)"/><path class="cls-49" d="M3207.31,3095.82c-15.25,13.52-64.84,15.31-64.84,15.31-178.64-428.74-251.71-489.65-251.71-489.65,25.79,161.82,4.16,520.09,4.16,520.09-29.48,13-67.48,0-67.48,0a2762.08,2762.08,0,0,0-91.22-678.13c120.73-2.71,184.94-44,205.9-60.61C3042.76,2565.08,3207.31,3095.82,3207.31,3095.82Z" transform="translate(-452.35 -455)"/><path class="cls-50" d="M2911.46,1909.78c22.85,114,14.66,318,9.28,411.07-1.51,26.15,16.75,62.41,31.51,87.15a7.76,7.76,0,0,1-3.14,10.91c-24.7,12.7-108.41,52.06-205.43,57a13.85,13.85,0,0,1-13.92-10.34c-72-268.7-155.54-440.4-155.54-440.4C2666.5,1877.76,2911.46,1909.78,2911.46,1909.78Z" transform="translate(-452.35 -455)"/><path class="cls-51" d="M2878.57,2611.33a5.65,5.65,0,0,0,3-.84,5.71,5.71,0,0,0,1.91-7.85c-1-1.58-24.06-38.93-70.82-61.49a5.72,5.72,0,1,0-5,10.3c43.59,21,65.8,56.78,66,57.14A5.73,5.73,0,0,0,2878.57,2611.33Z" transform="translate(-452.35 -455)"/><path class="cls-52" d="M3054.8,2236.93c-7.34,53.1-29,111-72.41,172.54L2965.9,2396s19-77.25,8.21-164.91C3000.87,2225.9,3032.48,2231.28,3054.8,2236.93Z" transform="translate(-452.35 -455)"/><path class="cls-53" d="M2885.94,2050.43l25.52-140.65S3082,2040.14,3054.8,2236.93c-22.32-5.65-53.93-11-80.69-5.81C2966.31,2168,2943,2099.42,2885.94,2050.43Z" transform="translate(-452.35 -455)"/><path class="cls-54" d="M2593.06,1997.58l59.44,145c-50.45,70-178.37,91.31-228.67,79.94a301,301,0,0,0,25-91.59C2535.77,2104,2593.06,1997.58,2593.06,1997.58Z" transform="translate(-452.35 -455)"/><path class="cls-55" d="M2448.79,2130.91a301,301,0,0,1-25,91.59c-140.66-18.53-138.29-115.34-138.29-115.34l16.44-8.22C2347.61,2130.56,2411.79,2142.37,2448.79,2130.91Z" transform="translate(-452.35 -455)"/><path class="cls-56" d="M2634.87,1850.1l31.78,116.83a22.72,22.72,0,0,0,30.39,15.12c13.63-5.45,30.92-12.89,45.81-20.92a30.63,30.63,0,0,0,10.8-44l-66.07-98.52Z" transform="translate(-452.35 -455)"/><path class="cls-57" d="M2633.92,1718.48c-1.26,1.58-44.51,128.43-44.51,128.43l73,23.16,58.86-114.14S2655.08,1692,2633.92,1718.48Z" transform="translate(-452.35 -455)"/><path class="cls-58" d="M2692.29,1772.1,2666,1834.61a9.48,9.48,0,0,1-1.31,2.21c-3.31,4.17-15.76,17.67-28.79,4.09-11.83-12.32-22.8-23.39-33.39-25.9a9.47,9.47,0,0,0-11.16,6.15c-3.92,11.53-12.29,37.66-16.1,61.48a9.46,9.46,0,0,0,7.08,10.62c14.3,3.59,44.68,10.33,70.39,10a9.49,9.49,0,0,0,8.29-5c8-15,32.32-60.51,41.07-72.14,8.21-10.92,26.69-9.52,34.41-8.38a9.29,9.29,0,0,0,7.1-1.86c7.14-5.56,21-20,3.84-39.24a9.48,9.48,0,0,1,1-13.62c8.23-6.88,17.34-19.4,5.28-36.3-12.25-17.18-29.85-15.6-40.76-12.32a9.48,9.48,0,0,1-11.14-4.87c-1.21-2.33-3.44-4.17-7.51-4.06a9.34,9.34,0,0,1-9.37-10.14c.8-10.5-2.18-24-20.08-30.74-31.76-12-53.77,18.11-57.13,41.31s31.8,34.22,52.89,33.88c16-.26,27,16.25,31.26,24.18A9.41,9.41,0,0,1,2692.29,1772.1Z" transform="translate(-452.35 -455)"/><path class="cls-59" d="M2692.29,1848.78s7.6-40.18,24.56-41.18,32.54,13.81,14.46,35.55C2708.83,1870.2,2692.29,1848.78,2692.29,1848.78Z" transform="translate(-452.35 -455)"/><path class="cls-60" d="M2972.7,2393.69l-77-6.28-33.34,30.74s7.89,10.9,32.55,4.63,58.44-7.8,58.44-7.8,34,15.35,34.46-13.37Z" transform="translate(-452.35 -455)"/><path class="cls-61" d="M2287.38,2121c.57,5.2,20.27,4.87,21.89-18.12-3.58-9.11-14.94-49.89-23.49-54.84-45.53-26.4-122.16-50.94-122.16-50.94-5.31,13.31,6.36,19,6.36,19l39.05,16.2c-1.17,12.6-4.27,24.15-2.11,37.82a41,41,0,0,0,15.86,26c8.42,6.42,19.67,14.64,29.52,20.61C2270.94,2128.09,2287.38,2121,2287.38,2121Z" transform="translate(-452.35 -455)"/><path class="cls-62" d="M2266.3,2107.29c-.25-.38-25.17-37.54-34.13-43.76-4.83-3.35-7.42-6.72-7.92-10.3-.41-2.95.62-5.88,3.14-9l.71-.87,35,10.47,17,17.59-2.43,2.35-16.4-17-32-9.56a7.61,7.61,0,0,0-1.73,5.48c.36,2.55,2.54,5.24,6.5,8,9.47,6.58,34,43.1,35,44.65Z" transform="translate(-452.35 -455)"/><path class="cls-19" d="M1217.82,1637.45l4.45,9,0,.06a5.19,5.19,0,0,1-9.32,4.58.54.54,0,0,1,0-.11l-4.29-9.28a5.07,5.07,0,0,1,9.15-4.37Z" transform="translate(-452.35 -455)"/><path class="cls-19" d="M1233.1,1667.35l4.84,8.83,0,.06a5.59,5.59,0,1,1-9.8,5.38l-.06-.12-4.7-9.07a5.47,5.47,0,0,1,9.65-5.15Z" transform="translate(-452.35 -455)"/><path class="cls-19" d="M1249.68,1696.5l5.23,8.59,0,.07a6,6,0,1,1-10.25,6.23l-.07-.12-5.1-8.86a5.87,5.87,0,0,1,10.11-6Z" transform="translate(-452.35 -455)"/><path class="cls-19" d="M1267.53,1724.87l5.59,8.35.05.06a6.4,6.4,0,1,1-10.63,7.12l-.08-.13-5.49-8.62a6.28,6.28,0,0,1,10.51-6.86Z" transform="translate(-452.35 -455)"/><path class="cls-19" d="M1286.59,1752.41l5.94,8.09,0,.07a6.8,6.8,0,1,1-10.95,8l-.1-.13-5.85-8.38a6.68,6.68,0,0,1,10.85-7.78Z" transform="translate(-452.35 -455)"/><path class="cls-19" d="M1306.81,1779.09l6.28,7.83.06.07a7.2,7.2,0,1,1-11.23,9,.64.64,0,0,1-.1-.13l-6.21-8.12a7.08,7.08,0,0,1,11.13-8.74Z" transform="translate(-452.35 -455)"/><path class="cls-19" d="M1328.14,1804.88l6.61,7.56.07.07a7.6,7.6,0,0,1-11.45,10l-.11-.14-6.55-7.86a7.48,7.48,0,0,1,11.36-9.72Z" transform="translate(-452.35 -455)"/><path class="cls-19" d="M1350.54,1829.74l6.93,7.27.06.07a8,8,0,1,1-11.59,11l-.13-.14-6.88-7.58a7.88,7.88,0,0,1,11.54-10.74Z" transform="translate(-452.35 -455)"/><path class="cls-19" d="M1374,1853.63l7.22,7,.07.07a8.41,8.41,0,1,1-11.68,12.09l-.14-.14-7.19-7.3a8.28,8.28,0,0,1,11.64-11.78Z" transform="translate(-452.35 -455)"/><path class="cls-19" d="M1398.35,1876.53l7.5,6.66.08.08a8.8,8.8,0,0,1-11.7,13.16l-.16-.14-7.5-7a8.68,8.68,0,0,1,11.69-12.84Z" transform="translate(-452.35 -455)"/><path class="cls-19" d="M1423.66,1898.39l7.76,6.34.09.08a9.21,9.21,0,1,1-11.66,14.25l-.16-.14-7.79-6.68a9.09,9.09,0,0,1,11.66-13.94Z" transform="translate(-452.35 -455)"/><path class="cls-19" d="M1449.84,1919.17l8,6,.09.07a9.61,9.61,0,1,1-11.54,15.37l-.18-.14-8.06-6.36a9.49,9.49,0,0,1,11.57-15Z" transform="translate(-452.35 -455)"/><path class="cls-19" d="M1476.85,1938.85l8.25,5.68.1.07a10,10,0,1,1-11.35,16.49l-.19-.13-8.32-6a9.89,9.89,0,0,1,11.4-16.17Z" transform="translate(-452.35 -455)"/><path class="cls-19" d="M1504.63,1957.38l8.48,5.33.11.07a10.41,10.41,0,1,1-11.09,17.63l-.21-.13-8.56-5.68a10.29,10.29,0,0,1,11.15-17.29Z" transform="translate(-452.35 -455)"/><path class="cls-19" d="M1533.14,1974.74l8.68,5,.12.06a10.82,10.82,0,0,1-10.74,18.78l-.22-.13-8.8-5.32a10.69,10.69,0,0,1,10.83-18.44Z" transform="translate(-452.35 -455)"/><path class="cls-19" d="M1562.32,1990.87l8.88,4.6.12.06a11.21,11.21,0,1,1-10.31,19.92l-.24-.12-9-4.94a11.1,11.1,0,0,1,10.42-19.59Z" transform="translate(-452.35 -455)"/><path class="cls-19" d="M1592.13,2005.75l9.06,4.22.13.06a11.62,11.62,0,0,1-9.8,21.07l-.25-.12-9.22-4.56a11.5,11.5,0,0,1,9.93-20.74Z" transform="translate(-452.35 -455)"/><path class="cls-19" d="M1622.52,2019.35l9.23,3.82.13.06a12,12,0,1,1-9.2,22.21l-.26-.11-9.41-4.17a11.9,11.9,0,0,1,9.35-21.88Z" transform="translate(-452.35 -455)"/><path class="cls-19" d="M1653.44,2031.62l9.37,3.42.15,0a12.42,12.42,0,0,1-8.52,23.34l-.27-.1-9.59-3.76a12.3,12.3,0,0,1,8.69-23Z" transform="translate(-452.35 -455)"/><path class="cls-19" d="M1684.83,2042.53l9.5,3,.16,0a12.83,12.83,0,0,1-7.73,24.46l-.29-.1-9.74-3.33a12.7,12.7,0,0,1,7.92-24.14Z" transform="translate(-452.35 -455)"/><path class="cls-19" d="M1716.65,2052.05l9.61,2.57.17.05a13.23,13.23,0,0,1-6.85,25.55l-.3-.09-9.89-2.9a13.1,13.1,0,0,1,7.07-25.23Z" transform="translate(-452.35 -455)"/><path class="cls-19" d="M1748.83,2060.13l9.72,2.14.18,0a13.63,13.63,0,0,1-5.87,26.62l-.31-.08-10-2.46a13.5,13.5,0,0,1,6.11-26.3Z" transform="translate(-452.35 -455)"/><path class="cls-19" d="M1095.11,2147.11l10.06,1.15a5.29,5.29,0,1,1-1.16,10.51l-.24,0-10-1.58a5.07,5.07,0,0,1,1.37-10Z" transform="translate(-452.35 -455)"/><path class="cls-19" d="M1128.66,2150.83l10.07,1.07a6,6,0,0,1-1.25,11.93l-.25,0-10-1.48a5.79,5.79,0,0,1,1.47-11.49Z" transform="translate(-452.35 -455)"/><path class="cls-19" d="M1162.22,2154.41l10.07,1a6.54,6.54,0,0,1-1.3,13l-.23,0-10.06-1.36a6.38,6.38,0,0,1,1.52-12.66Z" transform="translate(-452.35 -455)"/><path class="cls-19" d="M1195.79,2157.76l10.08.95a7.08,7.08,0,1,1-1.3,14.1l-.24,0-10.07-1.27a6.92,6.92,0,0,1,1.5-13.76Z" transform="translate(-452.35 -455)"/><path class="cls-19" d="M1229.39,2160.83l10.09.87h0a7.62,7.62,0,0,1-1.31,15.19l-.24,0-10.09-1.2a7.46,7.46,0,0,1,1.51-14.84Z" transform="translate(-452.35 -455)"/><path class="cls-19" d="M1263,2163.69l10.09.85h0a8,8,0,0,1-1.35,16l-.16,0-10.1-1.05a7.94,7.94,0,0,1,1.48-15.81Z" transform="translate(-452.35 -455)"/><path class="cls-19" d="M1296.62,2166.43l10.09.77h0a8.37,8.37,0,1,1-1.27,16.69h-.17l-10.11-1a8.28,8.28,0,0,1,1.41-16.49Z" transform="translate(-452.35 -455)"/><path class="cls-19" d="M1330.25,2168.89l10.1.69h0a8.71,8.71,0,0,1-1.18,17.37l-.17,0-10.12-.88a8.61,8.61,0,0,1,1.32-17.16Z" transform="translate(-452.35 -455)"/><path class="cls-19" d="M1363.91,2171.08l10.09.6h0a9,9,0,1,1-1.07,18h-.18l-10.13-.8a8.94,8.94,0,0,1,1.23-17.83Z" transform="translate(-452.35 -455)"/><path class="cls-19" d="M1397.57,2173l10.1.52h0a9.37,9.37,0,1,1-1,18.71h-.19l-10.13-.73a9.27,9.27,0,0,1,1.13-18.5Z" transform="translate(-452.35 -455)"/><path class="cls-19" d="M1431.25,2174.64l10.1.44h0a9.7,9.7,0,1,1-.84,19.38h-.19l-10.14-.64a9.6,9.6,0,0,1,1-19.17Z" transform="translate(-452.35 -455)"/><path class="cls-19" d="M1464.93,2176.09l10.1.41h0a9.9,9.9,0,0,1-.8,19.78h-.1l-10.14-.51a9.84,9.84,0,0,1,.88-19.67Z" transform="translate(-452.35 -455)"/><path class="cls-19" d="M1498.62,2177.35l10.11.32h0a10.07,10.07,0,0,1-.64,20.13H1508l-10.15-.42a10,10,0,0,1,.74-20Z" transform="translate(-452.35 -455)"/><path class="cls-19" d="M1532.31,2178.33l10.11.24h0A10.24,10.24,0,1,1,1542,2199h-.1l-10.16-.35a10.18,10.18,0,0,1,.58-20.36Z" transform="translate(-452.35 -455)"/><path class="cls-19" d="M1566,2179l10.11.17h0a10.4,10.4,0,0,1-.36,20.79h-.07l-10.16-.25A10.36,10.36,0,0,1,1566,2179Z" transform="translate(-452.35 -455)"/><path class="cls-19" d="M1599.72,2179.57l10.11.11h0a10.45,10.45,0,1,1-.23,20.9h0l-10.16-.15a10.43,10.43,0,1,1,.3-20.86Z" transform="translate(-452.35 -455)"/><path class="cls-19" d="M1633.42,2179.84l10.11,0h0a10.51,10.51,0,0,1-.06,21h0l-10.16-.07a10.49,10.49,0,0,1,.13-21Z" transform="translate(-452.35 -455)"/><path class="cls-19" d="M1667.13,2179.84l10.11-.05h0a10.57,10.57,0,0,1,.12,21.13h0l-10.16,0a10.55,10.55,0,0,1,0-21.1Z" transform="translate(-452.35 -455)"/><path class="cls-19" d="M1700.83,2179.57l10.11-.14h0a10.62,10.62,0,1,1,.28,21.24h0l-10.17.1a10.6,10.6,0,1,1-.21-21.2Z" transform="translate(-452.35 -455)"/><path class="cls-19" d="M1774.6,2302.16l-9.21,4-.11,0a10.92,10.92,0,0,1-8.83-20l9.33-4.25a11,11,0,1,1,9.13,20.09l-.16.07Z" transform="translate(-452.35 -455)"/><path class="cls-19" d="M1744.06,2315.74,1735,2320l-.1,0a10.58,10.58,0,0,1-9.22-19l9.18-4.56a10.69,10.69,0,0,1,9.5,19.15l-.14.07Z" transform="translate(-452.35 -455)"/><path class="cls-19" d="M1714,2330.35l-8.93,4.58-.09.05a10.24,10.24,0,0,1-9.54-18.11l9-4.86a10.34,10.34,0,1,1,9.83,18.2l-.14.07Z" transform="translate(-452.35 -455)"/><path class="cls-19" d="M1684.42,2346l-8.77,4.89-.09.05a9.89,9.89,0,0,1-9.8-17.19l8.84-5.16a10,10,0,1,1,10.08,17.26l-.13.08Z" transform="translate(-452.35 -455)"/><path class="cls-19" d="M1655.38,2362.61l-8.6,5.18-.09.05a9.55,9.55,0,0,1-10-16.26l8.66-5.46a9.65,9.65,0,0,1,10.29,16.33.57.57,0,0,1-.13.08Z" transform="translate(-452.35 -455)"/><path class="cls-19" d="M1626.9,2380.2l-8.43,5.47-.08,0a9.2,9.2,0,0,1-10.16-15.34l8.47-5.74a9.31,9.31,0,0,1,10.44,15.41l-.12.08Z" transform="translate(-452.35 -455)"/><path class="cls-19" d="M1599,2398.75l-8.24,5.74-.08.05a8.86,8.86,0,0,1-10.27-14.43l8.27-6a9,9,0,1,1,10.54,14.49l-.11.08Z" transform="translate(-452.35 -455)"/><path class="cls-19" d="M1571.74,2418.21l-8,6-.07.05a8.51,8.51,0,0,1-10.32-13.53l8.06-6.29a8.61,8.61,0,1,1,10.59,13.59l-.1.09Z" transform="translate(-452.35 -455)"/><path class="cls-19" d="M1545.13,2438.58l-7.86,6.28-.06,0a8.17,8.17,0,0,1-10.33-12.65l7.85-6.54a8.27,8.27,0,1,1,10.59,12.7l-.1.08Z" transform="translate(-452.35 -455)"/><path class="cls-19" d="M1519.19,2459.82l-7.65,6.54-.06,0a7.82,7.82,0,0,1-10.29-11.78l7.63-6.79a7.93,7.93,0,0,1,10.55,11.83l-.1.08Z" transform="translate(-452.35 -455)"/><path class="cls-19" d="M1494,2481.92l-7.42,6.79-.06.05a7.48,7.48,0,0,1-10.2-10.93l7.4-7a7.58,7.58,0,0,1,10.45,11l-.08.08Z" transform="translate(-452.35 -455)"/><path class="cls-19" d="M1469.46,2504.85l-7.2,7,0,0a7.13,7.13,0,0,1-10.07-10.09l7.15-7.29a7.24,7.24,0,0,1,10.33,10.14l-.08.08Z" transform="translate(-452.35 -455)"/><path class="cls-19" d="M1445.73,2528.58l-7,7.28,0,0a6.78,6.78,0,0,1-9.89-9.29l6.9-7.51a6.89,6.89,0,0,1,10.15,9.32l-.08.08Z" transform="translate(-452.35 -455)"/><path class="cls-19" d="M1422.8,2553.1l-6.72,7.51,0,0a6.44,6.44,0,0,1-9.68-8.49l6.65-7.74a6.54,6.54,0,1,1,9.92,8.53l-.06.08Z" transform="translate(-452.35 -455)"/><path class="cls-19" d="M1400.7,2578.38l-6.47,7.73,0,0a6.09,6.09,0,0,1-9.42-7.72l6.38-7.95a6.2,6.2,0,1,1,9.67,7.75l-.06.08Z" transform="translate(-452.35 -455)"/><path class="cls-19" d="M1379.45,2604.39l-6.2,8,0,0a5.75,5.75,0,0,1-9.13-7l6.11-8.16a5.85,5.85,0,1,1,9.37,7l0,.07Z" transform="translate(-452.35 -455)"/><path class="cls-19" d="M1359.09,2631.12l-5.93,8.15,0,.05a5.4,5.4,0,0,1-8.8-6.27l5.82-8.36a5.51,5.51,0,1,1,9,6.29l0,.07Z" transform="translate(-452.35 -455)"/><path class="cls-19" d="M1339.65,2658.53l-5.1,7.53,0,0a5.07,5.07,0,0,1-8.45-5.6l5-7.71a5.16,5.16,0,1,1,8.66,5.61.43.43,0,0,1,0,.07Z" transform="translate(-452.35 -455)"/><ellipse class="cls-63" cx="963.75" cy="1493.34" rx="257.52" ry="258.88" transform="translate(-1081 1827.73) rotate(-83.53)"/><ellipse class="cls-64" cx="963.75" cy="1493.34" rx="248.96" ry="250.27" transform="translate(-1081.07 1827.59) rotate(-83.53)"/><path class="cls-19" d="M1194.37,1510.59h-.21A3.36,3.36,0,0,1,1191,1507a228.05,228.05,0,0,0-.09-28.64,3.38,3.38,0,0,1,6.75-.44,232.12,232.12,0,0,1,.08,29.49A3.38,3.38,0,0,1,1194.37,1510.59Z" transform="translate(-452.35 -455)"/><path class="cls-19" d="M1180.46,1417.21a3.37,3.37,0,0,1-3.16-2.2c-30.09-80.73-102.14-136.93-188-146.66a230.2,230.2,0,0,0-41.23-1,3.38,3.38,0,1,1-.45-6.74,237.18,237.18,0,0,1,42.44,1c88.45,10,162.63,67.89,193.61,151a3.37,3.37,0,0,1-2,4.34A3.28,3.28,0,0,1,1180.46,1417.21Z" transform="translate(-452.35 -455)"/><path class="cls-19" d="M1108.52,1479.23q0,25.92-8.28,47.44t-23.41,33.76a54.17,54.17,0,0,1-35.11,12.25,43.59,43.59,0,0,1-23.58-6.4,36.62,36.62,0,0,1-14.77-16.83h-2.88q-19.44,23.22-49.51,23.23-31.87,0-50.24-19.18T882.38,1501q0-38,24.12-61.22t63-23.23a218.08,218.08,0,0,1,34.12,3q18.65,3,30.7,7.11l-4.14,88q0,25,13.68,25,11.53,0,18.37-16.84t6.84-44q0-29-12.06-51.23a82,82,0,0,0-33.94-33.94q-21.89-11.7-50-11.7-36.36,0-63.19,15t-41.15,43.12q-14.31,28.17-14.31,65.09,0,49.69,26.56,76.25T958,1608a231.19,231.19,0,0,0,42-4.24,277.81,277.81,0,0,0,45-12.33V1626q-38.52,16.38-85.52,16.39-68.41,0-106.68-36T814.5,1506.24q0-44.48,19.53-80.76a141.78,141.78,0,0,1,55.64-56.89Q925.78,1348,972.76,1348q39.62,0,70.76,16.21a114.9,114.9,0,0,1,48.08,46.09Q1108.52,1440.17,1108.52,1479.23Zm-184.37,22.51q0,38,31,38,16.2,0,24.67-11.44t10.26-37.18l2.34-39.79a98.6,98.6,0,0,0-20.71-2q-22.5,0-35,14T924.15,1501.74Z" transform="translate(-452.35 -455)"/><ellipse class="cls-65" cx="1166.84" cy="2888.3" rx="257.52" ry="258.88" transform="translate(-2286.85 3267.41) rotate(-83.53)"/><ellipse class="cls-66" cx="1166.84" cy="2888.3" rx="248.96" ry="250.27" transform="translate(-2286.94 3267.08) rotate(-83.53)"/><path class="cls-19" d="M1397.46,2905.55h-.21a3.38,3.38,0,0,1-3.17-3.58,226,226,0,0,0-.08-28.63,3.38,3.38,0,0,1,6.74-.45,234,234,0,0,1,.09,29.49A3.38,3.38,0,0,1,1397.46,2905.55Z" transform="translate(-452.35 -455)"/><path class="cls-19" d="M1383.55,2812.16a3.38,3.38,0,0,1-3.17-2.2c-30.08-80.72-102.13-136.92-188-146.66a230.1,230.1,0,0,0-41.22-1,3.38,3.38,0,1,1-.45-6.74,237.18,237.18,0,0,1,42.44,1c88.44,10,162.63,67.89,193.6,151a3.39,3.39,0,0,1-2,4.35A3.27,3.27,0,0,1,1383.55,2812.16Z" transform="translate(-452.35 -455)"/><path class="cls-19" d="M1038.46,2999.68a28.59,28.59,0,0,1-20-8,27,27,0,0,1-8.34-19.63V2819.45c0-15.55,13-28.42,29-28.68l252.38-4.2a28,28,0,0,1,20,7.95,27.13,27.13,0,0,1,8.16,19.48v148.14c0,15.14-12.46,27.91-27.77,28.46l-252.37,9.06Zm253.32-196.31-252.38,4.21c-6.9.11-12.52,5.44-12.52,11.87v152.62a10.37,10.37,0,0,0,3.21,7.53,12.08,12.08,0,0,0,8.87,3.26l252.38-9.06a11.93,11.93,0,0,0,11.56-11.66V2814a10.43,10.43,0,0,0-3.13-7.49,10.85,10.85,0,0,0-8-3.14Z" transform="translate(-452.35 -455)"/><path class="cls-19" d="M1166.38,2905.22a33.69,33.69,0,0,1-21.38-7.61l-112.42-91.91a8.4,8.4,0,0,1,10.64-13l112.41,91.9a17.48,17.48,0,0,0,22.61-.7l109.16-95.27a8.41,8.41,0,0,1,11.06,12.66l-109.17,95.27A34.79,34.79,0,0,1,1166.38,2905.22Z" transform="translate(-452.35 -455)"/><ellipse class="cls-67" cx="800.68" cy="2225.39" rx="257.52" ry="258.88" transform="translate(-1953.09 2315.25) rotate(-83.53)"/><ellipse class="cls-68" cx="800.68" cy="2225.39" rx="248.96" ry="250.27" transform="translate(-1953.13 2315.09) rotate(-83.53)"/><path class="cls-19" d="M1031.3,2242.63h-.21a3.39,3.39,0,0,1-3.17-3.58,226,226,0,0,0-.08-28.63,3.38,3.38,0,1,1,6.74-.45,234,234,0,0,1,.09,29.49A3.38,3.38,0,0,1,1031.3,2242.63Z" transform="translate(-452.35 -455)"/><path class="cls-19" d="M1017.39,2149.25a3.39,3.39,0,0,1-3.17-2.2c-30.08-80.73-102.13-136.93-188-146.66a230.22,230.22,0,0,0-41.23-1,3.38,3.38,0,1,1-.45-6.74,237.18,237.18,0,0,1,42.44,1c88.45,10,162.63,67.89,193.6,151a3.37,3.37,0,0,1-2,4.35A3.5,3.5,0,0,1,1017.39,2149.25Z" transform="translate(-452.35 -455)"/><path class="cls-19" d="M769.17,2283.53v-15.59q0-20.22,8.64-35.19t31.61-31.82q22.13-15.79,29.18-25.7a37.23,37.23,0,0,0,7.06-22.13q0-13.7-10.12-20.86t-28.23-7.16q-31.6,0-72.07,20.65l-23-46.15q47-26.34,99.66-26.34,43.41,0,69,20.86t25.6,55.63q0,23.17-10.53,40t-40,37.92q-20.22,15-25.6,22.76T825,2270.89v12.64Zm-6.74,72.07q0-17.7,9.48-26.76t27.6-9.06q17.49,0,27.08,9.27t9.59,26.55q0,16.65-9.7,26.23t-27,9.59q-17.7,0-27.39-9.38T762.43,2355.6Z" transform="translate(-452.35 -455)"/></svg>